/* XPM */
static char *_02b519c703842cd8f1cd48cbfc7a184[] = {
/* columns rows colors chars-per-pixel */
"45 42 237 2 ",
"   c #020002",
".  c #0A0000",
"X  c #07060A",
"o  c #150905",
"O  c #1B130C",
"+  c #1C1917",
"@  c #0C0A14",
"#  c #231D1B",
"$  c #291C15",
"%  c #331F18",
"&  c #2B221D",
"*  c #2E2216",
"=  c #39281A",
"-  c #3E311E",
";  c #161C2A",
":  c #211F23",
">  c #1A2434",
",  c #222223",
"<  c #2A2828",
"1  c #382D27",
"2  c #3E3326",
"3  c #373737",
"4  c #2F2D31",
"5  c #4C2F17",
"6  c #482E25",
"7  c #43342C",
"8  c #453528",
"9  c #553B29",
"0  c #453C34",
"q  c #613F23",
"w  c #46423C",
"e  c #564639",
"r  c #5B412B",
"t  c #674327",
"y  c #754C2B",
"u  c #74522D",
"i  c #684937",
"p  c #754B34",
"a  c #7A543D",
"s  c #78563A",
"d  c #6C503B",
"f  c #192A45",
"g  c #3D3B43",
"h  c #2C3B55",
"j  c #343E5A",
"k  c #2A364D",
"l  c #35425E",
"z  c #3D4143",
"x  c #3A4965",
"c  c #3D516C",
"v  c #444142",
"b  c #4A4749",
"n  c #594B46",
"m  c #58524B",
"M  c #484A52",
"N  c #534C52",
"B  c #545354",
"V  c #5B5553",
"C  c #595959",
"Z  c #4F535F",
"A  c #685447",
"S  c #795946",
"D  c #665C59",
"F  c #6D544A",
"G  c #6C635D",
"H  c #796559",
"J  c #76604E",
"K  c #43526D",
"L  c #4E546A",
"P  c #595C67",
"I  c #4C5B74",
"U  c #4D5D7A",
"Y  c #465572",
"T  c #535E79",
"R  c #464F6C",
"E  c #615D68",
"W  c #54637D",
"Q  c #5A6579",
"!  c #4F607E",
"~  c #6A6663",
"^  c #6D6B6A",
"/  c #676668",
"(  c #726D6B",
")  c #746B65",
"_  c #72736D",
"`  c #73796F",
"'  c #767573",
"]  c #7C7A75",
"[  c #7C7C7A",
"{  c #797577",
"}  c #696B73",
"|  c #865B3D",
" . c #88623D",
".. c #855C46",
"X. c #8C5F4D",
"o. c #82634D",
"O. c #8C6447",
"+. c #93684C",
"@. c #876857",
"#. c #946C58",
"$. c #99745B",
"%. c #A3755B",
"&. c #866C63",
"*. c #8B7468",
"=. c #987769",
"-. c #827D7A",
";. c #837B74",
":. c #A67D68",
">. c #7A8277",
",. c #83837C",
"<. c #8A867D",
"1. c #988375",
"2. c #98816F",
"3. c #AA8877",
"4. c #B79076",
"5. c #A8805D",
"6. c #C4987B",
"7. c #556583",
"8. c #5A6985",
"9. c #5C6D8B",
"0. c #576885",
"q. c #5E718C",
"w. c #5E7191",
"e. c #616E8C",
"r. c #62738D",
"t. c #6B778D",
"y. c #767987",
"u. c #637592",
"i. c #6A7994",
"p. c #6B7D9B",
"a. c #687895",
"s. c #797F99",
"d. c #857D82",
"f. c #6D809C",
"g. c #73839D",
"h. c #7A889A",
"j. c #6E82A1",
"k. c #7486A3",
"l. c #768AA6",
"z. c #7A8BA5",
"x. c #7B8DAA",
"c. c #7987A3",
"v. c #7E90AC",
"b. c #7F94B1",
"n. c #848483",
"m. c #898582",
"M. c #8C8A85",
"N. c #8D8B8B",
"B. c #878886",
"V. c #948C8C",
"C. c #958985",
"Z. c #8D9483",
"A. c #95958B",
"S. c #898B95",
"D. c #908E97",
"F. c #949494",
"G. c #9C9C9C",
"H. c #989896",
"J. c #8F9497",
"K. c #AB9687",
"L. c #B59889",
"P. c #A59B98",
"I. c #AA9089",
"U. c #9EA194",
"Y. c #A5A59B",
"T. c #BAA497",
"R. c #818DA3",
"E. c #8193AD",
"W. c #8D9AAE",
"Q. c #8B94A9",
"!. c #9C9BA4",
"~. c #959AA8",
"^. c #8395B1",
"/. c #8C9AB3",
"(. c #8D9CB7",
"). c #909EB7",
"_. c #A39DA3",
"`. c #9EA4A2",
"'. c #93A2BB",
"]. c #9AA5B6",
"[. c #8DA5BF",
"{. c #A3A3A4",
"}. c #AAA5A3",
"|. c #ACABA4",
" X c #ACABAA",
".X c #A6A6AA",
"XX c #B4ADA7",
"oX c #ABB2A5",
"OX c #B3B4AC",
"+X c #B5B8A9",
"@X c #A8AAB6",
"#X c #AEB1B7",
"$X c #B4B3B3",
"%X c #B7B9B7",
"&X c #B5AFB9",
"*X c #C39C85",
"=X c #C2A494",
"-X c #C5BDBA",
";X c #C9ABAB",
":X c #E0BBA8",
">X c #BEC3B8",
",X c #B3C0AE",
"<X c #C3C4BB",
"1X c #C8C7BD",
"2X c #DAC1B0",
"3X c #9BACC3",
"4X c #A9B3C6",
"5X c #B7BAC8",
"6X c #A7B1CC",
"7X c #C3BFC0",
"8X c #BEC2C5",
"9X c #BAC3D4",
"0X c #C4C4C2",
"qX c #CCCBCC",
"wX c #C8C9C7",
"eX c #CED2C6",
"rX c #D6D4CA",
"tX c #C7C9D3",
"yX c #D4D4D5",
"uX c #DBDCDC",
"iX c #D7D9D7",
"pX c #D3CDCE",
"aX c #E0DCDA",
"sX c #DDE3DC",
"dX c #E2E2DC",
"fX c #DCDDE1",
"gX c #D8DCE8",
"hX c #C8D0E6",
"jX c #DFE0E2",
"kX c #EBECEB",
"lX c #E5E7E6",
"zX c #EDEEF2",
"xX c #F4F4F4",
"cX c #F5F5F9",
"vX c #FDFDFD",
"bX c #FAF7F5",
"nX c #F0F3EF",
/* pixels */
"^ (  X%X{._. X-X|.( ' ( ^ ^ _ ' ,.,.' ' ` ,.] ,.~ D { pXiX{.B : ^  XN.B.B.{ z z 3 3 3 z 3 ",
") M.dXbXcXxXnXlX|.,.M.m.,.] ] ,.<.<.<.<.,.<.Z.A.F.' _ yXbXvXuX' / { D.N.S.^ ; 4 4 > ,     ",
"b 3 -XkXfXuXaXpXZ.C D B m B m m G ;.) H G G G ' aXbX&XB / .X.Xb , B C B C B B C M C } [ yX",
"~ G $XxXvXbXxXH.B ` ^ ^ _ ^ ] ) H H H J d 0 9 m 1XbXvX}.,.d.N.G.S.`.`.F.B.S.G..XuXtXG.#XxX",
"~ C G.vXvXvXyX-.>.n.B.N.M.A.,.w 2 8 e G e 8 2 = 8 <. X{..X$X%X8XtXtXwX8XfXzX XqXvX8XG.U.J.",
"3 # yXvXvXvXvXH.^ ' ' ' ' -.e . 2 2 r e e = $ 1 e n ;.B.N.D.J.J.J.J.J.@XcXlXP M [   ,.B.N.",
"w w _ V.}.%X0XV._ >.[ ] ,.G o 1 & * * e e 8 2 * 1 w m -.P.!.!.`.`.`.`..X#X!.N.n.J.n.H.G.H.",
"' ` [ _ ^ _ ' -.m.m.B.n.B.n o * * & < w w 8 - & O . O ~ Y.`.{..X X#X%X5X#X%X5X#X#X$X X{.}.",
"_ _ ' N.U.H.>.[ h.>.N.Y.-.3 O & : + O + # # # 7 H H . 3 }.wXwXyXzXcXxXvXcXbXvXxX5X%X%X$X$X",
"B.>.' >XbX1X>.oXoXH.OXsXH.  & & & O + # & 6 6 S 3.3.F   yXvXvXvXvXvXvXvXvXvXvXvXqXwX<X%X%X",
"A.Z.] wXsX<.,.oX>X`.%XnX%X  1 0 , X X X . % i #.5.3.=.  iXvXcXcXvXvXvXvXvXvXvXvXyXqXwX0X1X",
"Z.<.` %X,X` >.<.,XrXkXvX%X  1 9 7 $ = = t o.:.:.3.3.1.- eXvXvXvXvXvXvXvXvXvXvXvXyXyXyXpXqX",
",XZ.>.Y.1XU.<.U.eXdXdXeXOXO O e | O.+.#.:.:.:.:.*.S H H >XnXcXvXvXvXvXvXvXvXvXcXfXgXuXyXyX",
"rXU.U.oX>X+X<XnXlX<X1XeX%X0 . i o.S t i i o.@.F * n H 1.eXlXsXnXvXvXvXvXvXvXvXcXfXlXlXgXfX",
"1XoX+XoXoX,XoX,X+XOX+XoXT.7 . n H 9 6 1 6 6 o.S 5 F *.C.iXsXeXkXvXvXvXvXvXvXvXzXgXzXkXjXfX",
",XY.Y.oXY.,XoXU.Y.Y.%XOXXXH o p @.p t t q q +.%.O.+.5.L.1XsXiXlXvXvXvXvXvXvXvXzXjXcXzXkXlX",
",X<.U.B.H.>XOXH.U.+X1XdXrX1.5 p +.+.+.X.X.X.+.:.%.%.:.;X-XiXiXkXvXvXvXvXvXvXvXvXzXcXcXcXzX",
"A.,.>.^ A.1XoXU.Y.1X1XiX<XY.@.S #.5.:.%.X...%.:.:.p F I.}.fXsXyXkXcXvXvXvXvXvXkXfXvXlXtX0X",
"C m 2 >.eXA.P.}.U.OX<X X~ ) F S @.$.#.X.i F F X.=.X.6 L.XX}.B./ P P F.iX|.M.m.~ -.uXn.4 V.",
",.Z.M.XX<X>.) G D C m 4 3 o . n @...S 6 q ..9 i X.F &.I.1.v b P { ( ^ ) b     w V.{ B D ' ",
"Y.Y.}.}.H.^ b -.V.n.-.<.H..XH.) J S S i 6 i @.=.#.&.H . w V.A.H.H.P.Y.}.(   N ~ ) 4   D.Q ",
"~ ~ G ^ ~ -.D b ^ ] { ].4X].R./ m i d S p S ..S o.3.*.G ^ ~ ~ ~ ~ v     V -.H.P.T.I.V.qX}.",
"{ ( [ -.[ H.{ 4 -XtX4X3X).k.u.8.P B 9 d ..S i X.$.=.V.V.M.m.m.n.,.C   @ { C.L.=X3.=.F.C.-.",
"3 3 3 4 g !.-X' #X@XR.W.W./.c.p.a.8.L b A X.X.#.=.C.4             @ & < 4 . o.=.A         ",
"      . n 7X7Xd.6X5X6X3Xa.w.u.e.r.9.e.T M N F A H &.d.X : + :         . . ) 3.S .         ",
"-X1XwXpX:XXX;XpX7XtX5X6X3Xl.u.e.T I Y 7.9.Y M V V N ~.P   < X { P.Y. X$XXXT.L.3.Y..X}.|.oX",
"aXaXrXrXpXL.I.;X6X6X3X).^.'.^.p.p.u.U l x K l W 7.I t.@XQ X : .X$X}.}.P.T.=X:X2XT.m.C.<.,.",
"      X ~.}.&.=X@X3X3X3X^.k.^.(.p.p.w.e.7.U R U p.0.x ).5X}   '       . #.L.:XL.9 .       ",
"X : X y.7X_.@.L._.~.&X@X].x.p.^.^.c.i.w.w.u.u.W t.h.l R.'.9X~.{ 3 :   -.*X4.=.S @.7 + : , ",
"+   : @X6X_.o.4.L.#.#.L.G.(.l.u.l.^.E.p.u.e.9.7.8.c.Q i.^.W.5X].o   o A s s q t J 7   @ X ",
"+   E #X@XV.&.:...q 7 y.(.b.(.c.a.x./.E.k.a.e.8.Y p.i.e.h./.).4XD.    A o. .s s o.* . @ @ ",
"; X S.5X).V.o.y 5 5 &.P.@XW.W.).z.i.E.E.R.c.i.u.7.e.p.9.e.'.'.W.].Z   n S S p d F O   X X ",
"  + ~.@X!.d...+.+.y +.*X6.4.D.(.).x.k.^.l.l.k.g.e.7.a.7.W R.3X).W.t.  6 S ..| @.) 3   + + ",
"  M ].'.Q.y.&.%.+.| t s | S y.W.).(.x.x.E.c.c.k.u.T r.W 8.t.).).'.#Xy.  m e t F G M . X   ",
"  / @XW.P.*.o.y |  .| | ..&.S.k.^./.^.l.^.c.p.k.k.7.W 8.W 8.c.W.W.].].h.E < - 1 B / g 3 v ",
"#X@XW.~.V.@.u  .%.%.+. .$.*.S.g.k.b.b.b.E.E.l.k.g.r.W 8.W T g.E.E.h.R.hX].; 0 g L ~.yXiXpX",
"nX#XQ.~.1.o.S s p X.o.a | @.!.W.p.l.b.b.l.b.b.j.p.p.7.w.0.Y i.g.c.h.i.hX5X@ j x I t.5XkXjX",
"gX~.~.F.@.s s t p %.%.$.$.&.d.W.l.p.l.l.l.l.b.j.p.k.9.w.9.Y 8.a.g.r.j 9.p.f h j K r.Q.hXuX",
"tXS.!.*.s u u s | O.+.@.D N L u.b.p.p.l.l.l.l.l.j.j.w.9.9.I 7.u.t.W h j 7.h k x K 8.u.#XfX",
"3Xh.!.D s u u u t 5 n } R f x U p.j.p.p.l.j.j.j.k.j.w.0.u.7.U w.r.I > k 7.j j x K I 8.z.tX",
"R.c.Q.D s y q r 5 e Q w.K k x c 7.u.p.p.p.p.j.j.k.k.p.7.w.w.7.9.w.U > k x h j x x c 7.t.9X",
"h.~.t./ J i 5 $ / t.! 0.Y x c K U w.w.w.w.p.j.j.p.l.p.9.w.u.7.7.a.c ; h K l h h l x 7.r.tX"
};
