/* XPM */
static char *_985b19f441b430fd56cb6f73df35714[] = {
/* columns rows colors chars-per-pixel */
"20 20 122 2 ",
"   c None",
".  c #0081E7",
"X  c #0089E8",
"o  c #008AE8",
"O  c #008BE8",
"+  c #008BE9",
"@  c #008DE8",
"#  c #008DE9",
"$  c #008EE8",
"%  c #008FE9",
"&  c #0090E9",
"*  c #0291E9",
"=  c #0392E9",
"-  c #0491E9",
";  c #0892E9",
":  c #1192E9",
">  c #1E93E9",
",  c #2494E9",
"<  c #2796E9",
"1  c #2595EA",
"2  c #2695EA",
"3  c #2A95E9",
"4  c #2B95E9",
"5  c #2B96E9",
"6  c #2A95EA",
"7  c #2B95EA",
"8  c #2A96EA",
"9  c #2B96EA",
"0  c #2B96EB",
"q  c #2B97EB",
"w  c #2D95E8",
"e  c #2C95E9",
"r  c #2D95E9",
"t  c #2D97E8",
"y  c #2C96E9",
"u  c #2D96E9",
"i  c #2C97E9",
"p  c #2E96E9",
"a  c #2F96E9",
"s  c #2C95EA",
"d  c #2C96EA",
"f  c #2D96EA",
"g  c #2C97EA",
"h  c #2C96EB",
"j  c #2C97EB",
"k  c #2E96EA",
"l  c #2F96EA",
"z  c #2F97EA",
"x  c #2C97EC",
"c  c #2C98EC",
"v  c #2D98EC",
"b  c #2C98ED",
"n  c #2D98EE",
"m  c #2D99EE",
"M  c #2C99EF",
"N  c #2D99EF",
"B  c #3197E9",
"V  c #3096EA",
"C  c #3097EA",
"Z  c #3197EA",
"A  c #3097EB",
"S  c #3297EA",
"D  c #3397EA",
"F  c #3497EA",
"G  c #3398EA",
"H  c #3598EA",
"J  c #3698EA",
"K  c #3798EA",
"L  c #3A9AE9",
"P  c #3898EA",
"I  c #3A98EA",
"U  c #3B98EA",
"Y  c #3B99EA",
"T  c #2D9AF0",
"R  c #2D9BF1",
"E  c #2D9BF2",
"W  c #2E9BF2",
"Q  c #2E9CF3",
"!  c #2E9CF4",
"~  c #2E9DF5",
"^  c #2E9DF6",
"/  c #2E9EF6",
"(  c #2E9EF7",
")  c #2F9EF7",
"_  c #2E9FF7",
"`  c #2E9FF8",
"'  c #2F9FF8",
"]  c #2FA0FA",
"[  c #2FA1FB",
"{  c #2FA2FD",
"}  c #30A3FE",
"|  c #30A3FF",
" . c none",
".. c #30A6FF",
"X. c none",
"o. c #31A8FF",
"O. c #31A9FF",
"+. c #50A0EA",
"@. c #5BA3EB",
"#. c #67A8EB",
"$. c #6CA9EB",
"%. c #6FABEB",
"&. c #75AEEC",
"*. c #85B5ED",
"=. c #8BB8ED",
"-. c #93BCEE",
";. c #97BEEE",
":. c #9DC2EF",
">. c #AFCCF1",
",. c #B2CEF1",
"<. c #B7D1F2",
"1. c none",
"2. c none",
"3. c none",
"4. c none",
"5. c none",
"6. c none",
"7. c none",
"8. c none",
"9. c none",
"0. c none",
"q. c white",
/* pixels */
"                    d                   ",
"                g T } d                 ",
"        4 ..d m ~ d d ~ d d d d         ",
"        d [ d x d d d d m T ' g         ",
"        4 T d d w d d d d d d T         ",
"  4 4 m m d d d d d 4 d F D d m 4 4     ",
"  d ..d d d d d d 4 d D @ * d d m } q   ",
"  d ~ d d d d d d d d * =.@.: D x T g   ",
"    ~ d d d F F D P X :.9.1.X P d ~ g   ",
"  d ~ d d , % % P o *.9.6.#.- F d ] 4   ",
"  ~ d D , D 1.;.. &.8.9.&.X P 4 d g d   ",
"d ..d F % +.7.9.,.5.9.-.X Y d x d d ] q ",
"  d m d A : $.4.9.9.>.X K d 4 d d m ~ d ",
"    d ~ 4 D % Y 3.2.% d G 4 d d 4 4     ",
"    d ~ 4 d Y * 4 G > D 4 d d d ] t     ",
"    4 } x 4 1 K 1 1 A 4 4 d d d ] 4     ",
"    4 T d R d 4 g G 4 g d 4 ~ ~ O.q     ",
"          d ~ 4 4 ] ~ q x T 4 4 4       ",
"            g O.T 4 d R ..d             ",
"              d         d               "
};
